<svg width="512" height="512" viewBox="0 0 512 512" fill="none" xmlns="http://www.w3.org/2000/svg">
<path d="M151 175.2C136.2 175.2 124.467 171.133 115.8 163C107.267 154.733 103 143.667 103 129.8H128C128 137.133 130.067 142.867 134.2 147C138.333 151.133 143.933 153.2 151 153.2C158.067 153.2 163.667 151.2 167.8 147.2C171.933 143.067 174 137.333 174 130V50.2H140V27H199V130C199 144 194.667 155.067 186 163.2C177.467 171.2 165.8 175.2 151 175.2ZM256.922 175C247.589 175 239.455 173.267 232.522 169.8C225.722 166.2 220.455 161.2 216.722 154.8C213.122 148.267 211.322 140.6 211.322 131.8V68.2C211.322 59.4 213.122 51.8 216.722 45.4C220.455 38.8667 225.722 33.8667 232.522 30.4C239.455 26.8 247.589 25 256.922 25C266.389 25 274.522 26.8 281.322 30.4C288.122 33.8667 293.322 38.8667 296.922 45.4C300.655 51.8 302.522 59.3333 302.522 68V131.8C302.522 140.6 300.655 148.267 296.922 154.8C293.322 161.2 288.122 166.2 281.322 169.8C274.522 173.267 266.389 175 256.922 175ZM256.922 153C263.722 153 268.855 151.2 272.322 147.6C275.789 143.867 277.522 138.6 277.522 131.8V68.2C277.522 61.2667 275.789 56 272.322 52.4C268.855 48.8 263.722 47 256.922 47C250.122 47 244.989 48.8 241.522 52.4C238.055 56 236.322 61.2667 236.322 68.2V131.8C236.322 138.6 238.055 143.867 241.522 147.6C245.122 151.2 250.255 153 256.922 153ZM312.244 173V27H357.044C371.177 27 382.377 30.4 390.644 37.2C398.91 43.8667 403.044 53 403.044 64.6C403.044 71.1333 401.577 76.8 398.644 81.6C395.71 86.4 391.71 90.1333 386.644 92.8C381.71 95.4667 375.977 96.8 369.444 96.8V96C376.51 95.8667 382.777 97.2 388.244 100C393.844 102.667 398.244 106.667 401.444 112C404.777 117.333 406.444 123.8 406.444 131.4C406.444 139.8 404.51 147.133 400.644 153.4C396.777 159.667 391.31 164.533 384.244 168C377.31 171.333 368.977 173 359.244 173H312.244ZM336.644 152.2H357.644C364.977 152.2 370.71 150.267 374.844 146.4C379.11 142.4 381.244 137 381.244 130.2C381.244 123.4 379.11 117.933 374.844 113.8C370.71 109.533 364.977 107.4 357.644 107.4H336.644V152.2ZM336.644 87.2H356.644C363.31 87.2 368.51 85.4667 372.244 82C376.11 78.4 378.044 73.5333 378.044 67.4C378.044 61.2667 376.11 56.4667 372.244 53C368.51 49.5333 363.31 47.8 356.644 47.8H336.644V87.2ZM151 332.2C136.2 332.2 124.467 328.133 115.8 320C107.267 311.733 103 300.667 103 286.8H128C128 294.133 130.067 299.867 134.2 304C138.333 308.133 143.933 310.2 151 310.2C158.067 310.2 163.667 308.2 167.8 304.2C171.933 300.067 174 294.333 174 287V207.2H140V184H199V287C199 301 194.667 312.067 186 320.2C177.467 328.2 165.8 332.2 151 332.2ZM256.922 332C247.589 332 239.455 330.267 232.522 326.8C225.722 323.2 220.455 318.2 216.722 311.8C213.122 305.267 211.322 297.6 211.322 288.8V225.2C211.322 216.4 213.122 208.8 216.722 202.4C220.455 195.867 225.722 190.867 232.522 187.4C239.455 183.8 247.589 182 256.922 182C266.389 182 274.522 183.8 281.322 187.4C288.122 190.867 293.322 195.867 296.922 202.4C300.655 208.8 302.522 216.333 302.522 225V288.8C302.522 297.6 300.655 305.267 296.922 311.8C293.322 318.2 288.122 323.2 281.322 326.8C274.522 330.267 266.389 332 256.922 332ZM256.922 310C263.722 310 268.855 308.2 272.322 304.6C275.789 300.867 277.522 295.6 277.522 288.8V225.2C277.522 218.267 275.789 213 272.322 209.4C268.855 205.8 263.722 204 256.922 204C250.122 204 244.989 205.8 241.522 209.4C238.055 213 236.322 218.267 236.322 225.2V288.8C236.322 295.6 238.055 300.867 241.522 304.6C245.122 308.2 250.255 310 256.922 310ZM312.244 330V184H357.044C371.177 184 382.377 187.4 390.644 194.2C398.91 200.867 403.044 210 403.044 221.6C403.044 228.133 401.577 233.8 398.644 238.6C395.71 243.4 391.71 247.133 386.644 249.8C381.71 252.467 375.977 253.8 369.444 253.8V253C376.51 252.867 382.777 254.2 388.244 257C393.844 259.667 398.244 263.667 401.444 269C404.777 274.333 406.444 280.8 406.444 288.4C406.444 296.8 404.51 304.133 400.644 310.4C396.777 316.667 391.31 321.533 384.244 325C377.31 328.333 368.977 330 359.244 330H312.244ZM336.644 309.2H357.644C364.977 309.2 370.71 307.267 374.844 303.4C379.11 299.4 381.244 294 381.244 287.2C381.244 280.4 379.11 274.933 374.844 270.8C370.71 266.533 364.977 264.4 357.644 264.4H336.644V309.2ZM336.644 244.2H356.644C363.31 244.2 368.51 242.467 372.244 239C376.11 235.4 378.044 230.533 378.044 224.4C378.044 218.267 376.11 213.467 372.244 210C368.51 206.533 363.31 204.8 356.644 204.8H336.644V244.2ZM151 489.2C136.2 489.2 124.467 485.133 115.8 477C107.267 468.733 103 457.667 103 443.8H128C128 451.133 130.067 456.867 134.2 461C138.333 465.133 143.933 467.2 151 467.2C158.067 467.2 163.667 465.2 167.8 461.2C171.933 457.067 174 451.333 174 444V364.2H140V341H199V444C199 458 194.667 469.067 186 477.2C177.467 485.2 165.8 489.2 151 489.2ZM256.922 489C247.589 489 239.455 487.267 232.522 483.8C225.722 480.2 220.455 475.2 216.722 468.8C213.122 462.267 211.322 454.6 211.322 445.8V382.2C211.322 373.4 213.122 365.8 216.722 359.4C220.455 352.867 225.722 347.867 232.522 344.4C239.455 340.8 247.589 339 256.922 339C266.389 339 274.522 340.8 281.322 344.4C288.122 347.867 293.322 352.867 296.922 359.4C300.655 365.8 302.522 373.333 302.522 382V445.8C302.522 454.6 300.655 462.267 296.922 468.8C293.322 475.2 288.122 480.2 281.322 483.8C274.522 487.267 266.389 489 256.922 489ZM256.922 467C263.722 467 268.855 465.2 272.322 461.6C275.789 457.867 277.522 452.6 277.522 445.8V382.2C277.522 375.267 275.789 370 272.322 366.4C268.855 362.8 263.722 361 256.922 361C250.122 361 244.989 362.8 241.522 366.4C238.055 370 236.322 375.267 236.322 382.2V445.8C236.322 452.6 238.055 457.867 241.522 461.6C245.122 465.2 250.255 467 256.922 467ZM312.244 487V341H357.044C371.177 341 382.377 344.4 390.644 351.2C398.91 357.867 403.044 367 403.044 378.6C403.044 385.133 401.577 390.8 398.644 395.6C395.71 400.4 391.71 404.133 386.644 406.8C381.71 409.467 375.977 410.8 369.444 410.8V410C376.51 409.867 382.777 411.2 388.244 414C393.844 416.667 398.244 420.667 401.444 426C404.777 431.333 406.444 437.8 406.444 445.4C406.444 453.8 404.51 461.133 400.644 467.4C396.777 473.667 391.31 478.533 384.244 482C377.31 485.333 368.977 487 359.244 487H312.244ZM336.644 466.2H357.644C364.977 466.2 370.71 464.267 374.844 460.4C379.11 456.4 381.244 451 381.244 444.2C381.244 437.4 379.11 431.933 374.844 427.8C370.71 423.533 364.977 421.4 357.644 421.4H336.644V466.2ZM336.644 401.2H356.644C363.31 401.2 368.51 399.467 372.244 396C376.11 392.4 378.044 387.533 378.044 381.4C378.044 375.267 376.11 370.467 372.244 367C368.51 363.533 363.31 361.8 356.644 361.8H336.644V401.2Z" fill="#6C6C6C"/>
<path d="M149 172.2C134.2 172.2 122.467 168.133 113.8 160C105.267 151.733 101 140.667 101 126.8H126C126 134.133 128.067 139.867 132.2 144C136.333 148.133 141.933 150.2 149 150.2C156.067 150.2 161.667 148.2 165.8 144.2C169.933 140.067 172 134.333 172 127V47.2H138V24H197V127C197 141 192.667 152.067 184 160.2C175.467 168.2 163.8 172.2 149 172.2ZM254.922 172C245.589 172 237.455 170.267 230.522 166.8C223.722 163.2 218.455 158.2 214.722 151.8C211.122 145.267 209.322 137.6 209.322 128.8V65.2C209.322 56.4 211.122 48.8 214.722 42.4C218.455 35.8667 223.722 30.8667 230.522 27.4C237.455 23.8 245.589 22 254.922 22C264.389 22 272.522 23.8 279.322 27.4C286.122 30.8667 291.322 35.8667 294.922 42.4C298.655 48.8 300.522 56.3333 300.522 65V128.8C300.522 137.6 298.655 145.267 294.922 151.8C291.322 158.2 286.122 163.2 279.322 166.8C272.522 170.267 264.389 172 254.922 172ZM254.922 150C261.722 150 266.855 148.2 270.322 144.6C273.789 140.867 275.522 135.6 275.522 128.8V65.2C275.522 58.2667 273.789 53 270.322 49.4C266.855 45.8 261.722 44 254.922 44C248.122 44 242.989 45.8 239.522 49.4C236.055 53 234.322 58.2667 234.322 65.2V128.8C234.322 135.6 236.055 140.867 239.522 144.6C243.122 148.2 248.255 150 254.922 150ZM310.244 170V24H355.044C369.177 24 380.377 27.4 388.644 34.2C396.91 40.8667 401.044 50 401.044 61.6C401.044 68.1333 399.577 73.8 396.644 78.6C393.71 83.4 389.71 87.1333 384.644 89.8C379.71 92.4667 373.977 93.8 367.444 93.8V93C374.51 92.8667 380.777 94.2 386.244 97C391.844 99.6667 396.244 103.667 399.444 109C402.777 114.333 404.444 120.8 404.444 128.4C404.444 136.8 402.51 144.133 398.644 150.4C394.777 156.667 389.31 161.533 382.244 165C375.31 168.333 366.977 170 357.244 170H310.244ZM334.644 149.2H355.644C362.977 149.2 368.71 147.267 372.844 143.4C377.11 139.4 379.244 134 379.244 127.2C379.244 120.4 377.11 114.933 372.844 110.8C368.71 106.533 362.977 104.4 355.644 104.4H334.644V149.2ZM334.644 84.2H354.644C361.31 84.2 366.51 82.4667 370.244 79C374.11 75.4 376.044 70.5333 376.044 64.4C376.044 58.2667 374.11 53.4667 370.244 50C366.51 46.5333 361.31 44.8 354.644 44.8H334.644V84.2ZM149 329.2C134.2 329.2 122.467 325.133 113.8 317C105.267 308.733 101 297.667 101 283.8H126C126 291.133 128.067 296.867 132.2 301C136.333 305.133 141.933 307.2 149 307.2C156.067 307.2 161.667 305.2 165.8 301.2C169.933 297.067 172 291.333 172 284V204.2H138V181H197V284C197 298 192.667 309.067 184 317.2C175.467 325.2 163.8 329.2 149 329.2ZM254.922 329C245.589 329 237.455 327.267 230.522 323.8C223.722 320.2 218.455 315.2 214.722 308.8C211.122 302.267 209.322 294.6 209.322 285.8V222.2C209.322 213.4 211.122 205.8 214.722 199.4C218.455 192.867 223.722 187.867 230.522 184.4C237.455 180.8 245.589 179 254.922 179C264.389 179 272.522 180.8 279.322 184.4C286.122 187.867 291.322 192.867 294.922 199.4C298.655 205.8 300.522 213.333 300.522 222V285.8C300.522 294.6 298.655 302.267 294.922 308.8C291.322 315.2 286.122 320.2 279.322 323.8C272.522 327.267 264.389 329 254.922 329ZM254.922 307C261.722 307 266.855 305.2 270.322 301.6C273.789 297.867 275.522 292.6 275.522 285.8V222.2C275.522 215.267 273.789 210 270.322 206.4C266.855 202.8 261.722 201 254.922 201C248.122 201 242.989 202.8 239.522 206.4C236.055 210 234.322 215.267 234.322 222.2V285.8C234.322 292.6 236.055 297.867 239.522 301.6C243.122 305.2 248.255 307 254.922 307ZM310.244 327V181H355.044C369.177 181 380.377 184.4 388.644 191.2C396.91 197.867 401.044 207 401.044 218.6C401.044 225.133 399.577 230.8 396.644 235.6C393.71 240.4 389.71 244.133 384.644 246.8C379.71 249.467 373.977 250.8 367.444 250.8V250C374.51 249.867 380.777 251.2 386.244 254C391.844 256.667 396.244 260.667 399.444 266C402.777 271.333 404.444 277.8 404.444 285.4C404.444 293.8 402.51 301.133 398.644 307.4C394.777 313.667 389.31 318.533 382.244 322C375.31 325.333 366.977 327 357.244 327H310.244ZM334.644 306.2H355.644C362.977 306.2 368.71 304.267 372.844 300.4C377.11 296.4 379.244 291 379.244 284.2C379.244 277.4 377.11 271.933 372.844 267.8C368.71 263.533 362.977 261.4 355.644 261.4H334.644V306.2ZM334.644 241.2H354.644C361.31 241.2 366.51 239.467 370.244 236C374.11 232.4 376.044 227.533 376.044 221.4C376.044 215.267 374.11 210.467 370.244 207C366.51 203.533 361.31 201.8 354.644 201.8H334.644V241.2ZM149 486.2C134.2 486.2 122.467 482.133 113.8 474C105.267 465.733 101 454.667 101 440.8H126C126 448.133 128.067 453.867 132.2 458C136.333 462.133 141.933 464.2 149 464.2C156.067 464.2 161.667 462.2 165.8 458.2C169.933 454.067 172 448.333 172 441V361.2H138V338H197V441C197 455 192.667 466.067 184 474.2C175.467 482.2 163.8 486.2 149 486.2ZM254.922 486C245.589 486 237.455 484.267 230.522 480.8C223.722 477.2 218.455 472.2 214.722 465.8C211.122 459.267 209.322 451.6 209.322 442.8V379.2C209.322 370.4 211.122 362.8 214.722 356.4C218.455 349.867 223.722 344.867 230.522 341.4C237.455 337.8 245.589 336 254.922 336C264.389 336 272.522 337.8 279.322 341.4C286.122 344.867 291.322 349.867 294.922 356.4C298.655 362.8 300.522 370.333 300.522 379V442.8C300.522 451.6 298.655 459.267 294.922 465.8C291.322 472.2 286.122 477.2 279.322 480.8C272.522 484.267 264.389 486 254.922 486ZM254.922 464C261.722 464 266.855 462.2 270.322 458.6C273.789 454.867 275.522 449.6 275.522 442.8V379.2C275.522 372.267 273.789 367 270.322 363.4C266.855 359.8 261.722 358 254.922 358C248.122 358 242.989 359.8 239.522 363.4C236.055 367 234.322 372.267 234.322 379.2V442.8C234.322 449.6 236.055 454.867 239.522 458.6C243.122 462.2 248.255 464 254.922 464ZM310.244 484V338H355.044C369.177 338 380.377 341.4 388.644 348.2C396.91 354.867 401.044 364 401.044 375.6C401.044 382.133 399.577 387.8 396.644 392.6C393.71 397.4 389.71 401.133 384.644 403.8C379.71 406.467 373.977 407.8 367.444 407.8V407C374.51 406.867 380.777 408.2 386.244 411C391.844 413.667 396.244 417.667 399.444 423C402.777 428.333 404.444 434.8 404.444 442.4C404.444 450.8 402.51 458.133 398.644 464.4C394.777 470.667 389.31 475.533 382.244 479C375.31 482.333 366.977 484 357.244 484H310.244ZM334.644 463.2H355.644C362.977 463.2 368.71 461.267 372.844 457.4C377.11 453.4 379.244 448 379.244 441.2C379.244 434.4 377.11 428.933 372.844 424.8C368.71 420.533 362.977 418.4 355.644 418.4H334.644V463.2ZM334.644 398.2H354.644C361.31 398.2 366.51 396.467 370.244 393C374.11 389.4 376.044 384.533 376.044 378.4C376.044 372.267 374.11 367.467 370.244 364C366.51 360.533 361.31 358.8 354.644 358.8H334.644V398.2Z" fill="white"/>
</svg>
